<svg width="55" height="42" viewBox="0 0 55 42" fill="none" xmlns="http://www.w3.org/2000/svg">
<path fill-rule="evenodd" clip-rule="evenodd" d="M17.7002 32.7766L25.8313 37.4829L17.7002 42V38.4666C13.1025 37.8004 9.14632 36.6834 6.27913 35.2704C2.92832 33.6189 0.960938 31.4903 0.960938 29.0787C0.960938 26.0503 4.13573 23.4365 9.26805 21.6583C14.0072 20.0166 20.5197 19 27.6819 19C34.8441 19 41.3565 20.0166 46.0957 21.6583C51.228 23.4365 54.4028 26.0503 54.4028 29.0787C54.4028 31.5955 52.2545 33.8064 48.6257 35.4908C45.2584 37.0536 40.5126 38.2264 35.0382 38.7874C34.3506 38.8581 33.7354 38.358 33.6646 37.6688C33.5939 36.9812 34.094 36.366 34.7832 36.2952C39.9797 35.7639 44.4474 34.6651 47.5762 33.2142C50.2871 31.9558 51.8926 30.5164 51.8926 29.0771C51.8926 27.2314 49.3659 25.4335 45.2814 24.0188C40.8055 22.4676 34.5842 21.5086 27.6819 21.5086C20.7796 21.5086 14.5583 22.4676 10.0823 24.0188C5.99784 25.4351 3.47116 27.2331 3.47116 29.0771C3.47116 30.4391 4.92039 31.8061 7.38784 33.0234C9.94907 34.2851 13.5137 35.2984 17.7018 35.93V32.7766H17.7002Z" fill="#808182"/>
<path d="M36.5092 0.423828C39.0212 0.423828 40.1892 2.66383 40.1892 5.71983C40.1892 9.07983 38.8772 11.1758 36.3812 11.1758C33.9972 11.1758 32.7172 8.99983 32.7012 5.83183C32.7012 2.58383 34.0772 0.423828 36.5092 0.423828ZM36.4612 1.92783C35.4212 1.92783 34.6852 3.22383 34.6852 5.81583C34.6852 8.35983 35.3732 9.67183 36.4452 9.67183C37.6132 9.67183 38.2052 8.26383 38.2052 5.76783C38.2052 3.35183 37.6452 1.92783 36.4612 1.92783Z" fill="#808182"/>
<path d="M30.5858 0.456154V2.00815C30.2978 1.99215 29.9778 2.00815 29.5938 2.05615C27.4018 2.31215 26.3618 3.64015 26.1058 5.08015H26.1538C26.6658 4.48815 27.4498 4.07215 28.4898 4.07215C30.2818 4.07215 31.6738 5.35215 31.6738 7.46415C31.6738 9.44815 30.2178 11.1762 28.0098 11.1762C25.4818 11.1762 24.0898 9.25616 24.0898 6.68016C24.0898 4.68016 24.8098 3.06415 25.8978 2.04015C26.8418 1.12815 28.1058 0.616154 29.5938 0.504155C30.0258 0.440155 30.3458 0.440155 30.5858 0.456154ZM28.0098 9.70416C29.0178 9.70416 29.6738 8.82416 29.6738 7.57616C29.6738 6.36016 29.0178 5.51215 27.8658 5.51215C27.1298 5.51215 26.4738 5.96015 26.1698 6.58415C26.0898 6.74415 26.0418 6.93616 26.0418 7.20816C26.0738 8.58416 26.7138 9.70416 28.0098 9.70416Z" fill="#808182"/>
<path d="M15.6406 10.4558L16.0886 8.96783C16.4886 9.20783 17.4646 9.60783 18.4566 9.60783C19.9606 9.60783 20.5526 8.75983 20.5526 7.94383C20.5526 6.71183 19.3846 6.18383 18.1846 6.18383H17.2886V4.74383H18.1846C19.0806 4.74383 20.2326 4.32783 20.2326 3.30383C20.2326 2.58383 19.7206 1.99183 18.5686 1.99183C17.7206 1.99183 16.8726 2.35983 16.4406 2.64783L15.9926 1.22383C16.5846 0.823828 17.7526 0.423828 18.9846 0.423828C21.1446 0.423828 22.2326 1.60783 22.2326 2.96783C22.2326 4.05583 21.5926 4.95183 20.3126 5.39983V5.43183C21.5766 5.67183 22.5846 6.61583 22.6006 8.02383C22.6006 9.78383 21.1286 11.1758 18.5526 11.1758C17.2886 11.1758 16.2006 10.8238 15.6406 10.4558Z" fill="#808182"/>
<path d="M43.7229 0.012207C44.5929 0.012207 45.1749 0.624207 45.1749 1.51221C45.1749 2.58621 44.4189 3.06621 43.6749 3.06621C42.8529 3.06621 42.2109 2.50221 42.2109 1.56021C42.2109 0.600207 42.8409 0.012207 43.7229 0.012207ZM43.7049 0.546207C43.1829 0.546207 42.9729 1.05621 42.9729 1.54221C42.9729 2.10621 43.2549 2.53221 43.6989 2.53221C44.1189 2.53221 44.4129 2.12421 44.4129 1.53021C44.4129 1.07421 44.2089 0.546207 43.7049 0.546207Z" fill="#808182"/>
</svg>
