<svg width="0" height="0" class="hidden">
  <symbol version="1.1" xmlns="http://www.w3.org/2000/svg" viewBox="0 0 523 448" id="arrow-right">
    <path fill="currentColor" d="M522.599 223.513c-0.134-8.243-4.084-15.976-10.726-20.996l-192.705-194.306c-5.091-5.129-12.043-8.058-19.331-8.144-7.284-0.087-14.311 2.677-19.524 7.683-5.215 5.006-8.195 11.843-8.282 19.011s2.723 14.072 7.813 19.2l149.737 150.966h-400.993c-7.349-0.104-14.439 2.699-19.672 7.773-5.238 5.079-8.184 12.006-8.185 19.236s2.947 14.162 8.186 19.237c5.232 5.077 12.323 7.877 19.671 7.777h400.994l-149.737 150.964c-5.091 5.13-7.9 12.036-7.813 19.204 0.088 7.164 3.063 14.004 8.281 19.010 5.215 5.003 12.237 7.769 19.525 7.683 7.288-0.090 14.241-3.020 19.331-8.15l192.81-194.4c6.813-5.204 10.752-13.254 10.621-21.737v-0.010z"></path>
  </symbol>
  <symbol version="1.1" xmlns="http://www.w3.org/2000/svg" viewBox="0 0 448 448" id="top-chevron">
    <path fill="currentColor" d="M442.526 339.858c-7.3 7.297-19.096 7.297-26.393 0l-192.134-192.133-192.132 192.133c-7.298 7.297-19.096 7.297-26.394 0-7.298-7.3-7.298-19.096 0-26.396l205.329-205.328c3.64-3.64 8.418-5.47 13.198-5.47s9.557 1.83 13.197 5.47l205.328 205.328c7.297 7.3 7.297 19.096 0 26.396z"></path>
  </symbol>
  <symbol version="1.1" xmlns="http://www.w3.org/2000/svg" viewBox="0 0 448 448" id="down-chevron">
    <path fill="currentColor" d="M442.526 108.143c-7.298-7.298-19.096-7.298-26.394 0l-192.133 192.132-192.132-192.132c-7.298-7.298-19.096-7.298-26.394 0s-7.298 19.096 0 26.394l205.329 205.329c3.64 3.64 8.418 5.47 13.197 5.47s9.558-1.83 13.198-5.47l205.329-205.329c7.298-7.298 7.298-19.096-0-26.394z"></path>
  </symbol>
  <symbol version="1.1" xmlns="http://www.w3.org/2000/svg" viewBox="0 0 656 448" id="yt">
    <path fill="currentColor" d="M642.251 70.117c-7.375-27.418-28.992-49.032-56.406-56.414-50.081-13.703-250.414-13.703-250.414-13.703s-200.325 0-250.407 13.184c-26.887 7.375-49.031 29.519-56.406 56.934-13.18 50.078-13.18 153.934-13.18 153.934s0 104.379 13.18 153.934c7.383 27.414 28.992 49.027 56.41 56.409 50.606 13.707 250.411 13.707 250.411 13.707s200.325 0 250.406-13.184c27.418-7.379 49.032-28.992 56.414-56.406 13.176-50.082 13.176-153.933 13.176-153.933s0.526-104.384-13.184-154.462zM271.649 319.997v-191.891l166.586 95.946-166.586 95.945z"></path>
  </symbol>
  <symbol version="1.1" xmlns="http://www.w3.org/2000/svg" viewBox="0 0 448 448" id="insta">
    <path fill="currentColor" d="M447.562 131.713c-1.050-23.804-4.899-40.169-10.413-54.349-5.688-15.052-14.44-28.528-25.907-39.732-11.203-11.377-24.768-20.218-39.646-25.818-14.263-5.514-30.542-9.364-54.346-10.413-23.982-1.138-31.595-1.402-92.42-1.402s-68.438 0.263-92.33 1.313c-23.804 1.050-40.169 4.902-54.346 10.413-15.056 5.688-28.532 14.44-39.735 25.907-11.377 11.203-20.214 24.768-25.817 39.646-5.514 14.266-9.364 30.542-10.413 54.346-1.138 23.982-1.402 31.595-1.402 92.419s0.263 68.438 1.313 92.33c1.050 23.804 4.902 40.169 10.416 54.349 5.688 15.053 14.526 28.528 25.903 39.732 11.203 11.377 24.768 20.217 39.646 25.817 14.266 5.515 30.542 9.364 54.35 10.414 23.89 1.053 31.506 1.313 92.33 1.313s68.438-0.26 92.33-1.313c23.804-1.050 40.169-4.899 54.346-10.414 30.108-11.64 53.912-35.445 65.552-65.549 5.51-14.266 9.363-30.545 10.414-54.349 1.050-23.893 1.312-31.506 1.312-92.33s-0.090-68.438-1.139-92.33zM407.218 314.624c-0.963 21.879-4.639 33.694-7.702 41.571-7.528 19.517-23.017 35.007-42.534 42.534-7.877 3.063-19.777 6.738-41.571 7.699-23.628 1.053-30.716 1.313-90.49 1.313-59.776 0-66.952-0.26-90.495-1.313-21.879-0.961-33.695-4.636-41.571-7.699-9.713-3.59-18.553-9.278-25.728-16.717-7.439-7.264-13.128-16.016-16.717-25.728-3.063-7.876-6.738-19.78-7.699-41.57-1.053-23.63-1.313-30.72-1.313-90.495 0-59.776 0.26-66.952 1.313-90.492 0.961-21.879 4.636-33.694 7.699-41.571 3.59-9.716 9.278-18.553 16.806-25.732 7.261-7.439 16.013-13.128 25.728-16.714 7.877-3.063 19.78-6.738 41.57-7.702 23.63-1.050 30.72-1.313 90.492-1.313 59.864 0 66.95 0.263 90.495 1.313 21.879 0.964 33.694 4.639 41.57 7.702 9.713 3.586 18.554 9.275 25.728 16.714 7.439 7.265 13.128 16.016 16.717 25.732 3.063 7.876 6.739 19.777 7.702 41.571 1.050 23.63 1.313 30.716 1.313 90.492 0 59.774-0.263 66.776-1.313 90.405z"></path>
    <path fill="currentColor" d="M224.832 108.959c-63.535 0-115.085 51.547-115.085 115.085s51.55 115.084 115.085 115.084c63.539 0 115.084-51.546 115.084-115.084s-51.546-115.085-115.084-115.085zM224.832 298.697c-41.22 0-74.654-33.431-74.654-74.652s33.434-74.654 74.654-74.654c41.222 0 74.652 33.431 74.652 74.654 0 41.222-33.431 74.652-74.652 74.652z"></path>
    <path fill="currentColor" d="M371.34 104.409c0 14.837-12.030 26.867-26.87 26.867-14.838 0-26.868-12.030-26.868-26.867 0-14.84 12.030-26.867 26.868-26.867 14.84 0 26.87 12.027 26.87 26.867z"></path>
  </symbol>
  <symbol version="1.1" xmlns="http://www.w3.org/2000/svg" viewBox="0 0 448 448" id="profile">
    <path fill="transparent" d="M224 16c-114.691 0-208 93.309-208 208 0 50.232 17.902 96.36 47.66 132.344 0.076 0.104 0.083 0.235 0.166 0.333 21.486 25.909 48.471 45.773 78.541 58.606 0.347 0.146 0.686 0.306 1.033 0.451 2.434 1.026 4.895 1.976 7.363 2.905 0.971 0.366 1.941 0.741 2.926 1.094 2.128 0.763 4.271 1.485 6.428 2.177 1.379 0.443 2.758 0.88 4.152 1.296 1.907 0.57 3.821 1.117 5.749 1.637 1.691 0.458 3.397 0.88 5.103 1.29 1.726 0.416 3.459 0.832 5.2 1.2 1.941 0.416 3.904 0.782 5.872 1.144 1.581 0.291 3.155 0.595 4.75 0.853 2.184 0.353 4.381 0.63 6.586 0.915 1.422 0.179 2.837 0.387 4.264 0.541 2.496 0.262 5.013 0.45 7.538 0.624 1.171 0.083 2.336 0.208 3.515 0.27 3.682 0.208 7.405 0.318 11.155 0.318s7.474-0.11 11.17-0.306c1.179-0.063 2.344-0.187 3.515-0.27 2.523-0.179 5.040-0.36 7.536-0.624 1.429-0.152 2.843-0.36 4.264-0.541 2.205-0.283 4.403-0.562 6.587-0.915 1.587-0.256 3.168-0.562 4.749-0.853 1.963-0.36 3.925-0.728 5.873-1.144 1.739-0.375 3.465-0.782 5.2-1.198 1.706-0.416 3.411-0.84 5.103-1.29 1.928-0.514 3.842-1.069 5.747-1.637 1.393-0.416 2.774-0.853 4.154-1.296 2.157-0.694 4.299-1.414 6.427-2.177 0.978-0.353 1.949-0.728 2.926-1.096 2.475-0.928 4.93-1.885 7.363-2.904 0.346-0.146 0.686-0.306 1.032-0.451 30.064-12.834 57.054-32.697 78.541-58.608 0.083-0.096 0.091-0.235 0.166-0.333 29.744-35.997 47.646-82.125 47.646-132.357 0-114.691-93.309-208-208-208zM308.288 398.859c-0.104 0.048-0.2 0.104-0.304 0.152-2.475 1.192-4.992 2.315-7.53 3.411-0.576 0.243-1.144 0.493-1.72 0.735-2.219 0.93-4.466 1.81-6.725 2.656-0.944 0.353-1.887 0.701-2.837 1.034-2.003 0.714-4.014 1.4-6.045 2.051-1.262 0.403-2.531 0.784-3.8 1.159-1.803 0.541-3.613 1.061-5.443 1.546-1.539 0.41-3.091 0.784-4.645 1.152-1.629 0.387-3.251 0.782-4.894 1.13-1.797 0.381-3.606 0.707-5.408 1.034-1.464 0.27-2.92 0.553-4.397 0.791-2.030 0.318-4.083 0.574-6.128 0.832-1.298 0.166-2.587 0.36-3.898 0.499-2.336 0.25-4.693 0.408-7.043 0.574-1.048 0.070-2.088 0.187-3.149 0.243-3.432 0.181-6.87 0.277-10.323 0.277s-6.891-0.096-10.317-0.277c-1.054-0.056-2.094-0.166-3.147-0.243-2.359-0.158-4.709-0.325-7.045-0.574-1.31-0.139-2.6-0.333-3.896-0.499-2.046-0.258-4.098-0.514-6.13-0.832-1.477-0.237-2.933-0.52-4.395-0.791-1.81-0.326-3.619-0.659-5.408-1.034-1.643-0.347-3.274-0.742-4.896-1.13-1.552-0.375-3.106-0.742-4.645-1.152-1.824-0.485-3.64-1.011-5.443-1.546-1.269-0.375-2.538-0.755-3.798-1.159-2.032-0.651-4.049-1.337-6.046-2.051-0.95-0.341-1.893-0.686-2.836-1.034-2.26-0.847-4.507-1.726-6.725-2.656-0.575-0.235-1.137-0.485-1.712-0.728-2.538-1.088-5.054-2.218-7.536-3.411-0.104-0.048-0.201-0.096-0.305-0.152-24.19-11.704-45.559-28.315-62.899-48.491 13.402-49.352 51.341-89.136 100.152-104.965 0.963 0.59 1.97 1.117 2.96 1.672 0.582 0.325 1.159 0.672 1.747 0.984 2.067 1.096 4.16 2.121 6.302 3.043 1.643 0.721 3.343 1.331 5.033 1.955 0.333 0.119 0.665 0.25 0.998 0.368 9.401 3.328 19.462 5.235 29.987 5.235s20.586-1.907 29.979-5.235c0.333-0.119 0.665-0.25 0.998-0.368 1.693-0.624 3.39-1.234 5.033-1.955 2.142-0.922 4.237-1.947 6.302-3.043 0.59-0.318 1.165-0.659 1.747-0.984 0.992-0.555 2.005-1.082 2.975-1.678 48.811 15.835 86.744 55.619 100.152 104.963-17.339 20.17-38.709 36.782-62.899 48.493zM147.733 168.533c0-42.050 34.216-76.266 76.267-76.266s76.267 34.216 76.267 76.266c0 26.749-13.874 50.288-34.778 63.906-2.733 1.775-5.574 3.362-8.495 4.749-0.346 0.166-0.686 0.339-1.032 0.499-20.080 9.131-43.846 9.131-63.926 0-0.346-0.16-0.693-0.333-1.032-0.499-2.926-1.387-5.761-2.975-8.495-4.749-20.904-13.618-34.777-37.157-34.777-63.906zM381.587 337.173c-15.717-46.411-51.576-83.922-97.392-101.739 18.325-16.509 29.938-40.346 29.938-66.901 0-49.698-40.435-90.133-90.133-90.133s-90.133 40.435-90.133 90.133c0 26.555 11.613 50.392 29.945 66.901-45.815 17.826-81.674 55.328-97.392 101.739-22.97-31.886-36.553-70.963-36.553-113.173 0-107.044 87.090-194.133 194.133-194.133s194.133 87.090 194.133 194.133c0 42.21-13.582 81.286-36.546 113.173z"></path>
    <path fill="none" stroke-linejoin="miter" stroke-linecap="butt" stroke-miterlimit="4" stroke-width="11.2" stroke="currentColor" d="M224 16c-114.691 0-208 93.309-208 208 0 50.232 17.902 96.36 47.66 132.344 0.076 0.104 0.083 0.235 0.166 0.333 21.486 25.909 48.471 45.773 78.541 58.606 0.347 0.146 0.686 0.306 1.033 0.451 2.434 1.026 4.895 1.976 7.363 2.905 0.971 0.366 1.941 0.741 2.926 1.094 2.128 0.763 4.271 1.485 6.428 2.177 1.379 0.443 2.758 0.88 4.152 1.296 1.907 0.57 3.821 1.117 5.749 1.637 1.691 0.458 3.397 0.88 5.103 1.29 1.726 0.416 3.459 0.832 5.2 1.2 1.941 0.416 3.904 0.782 5.872 1.144 1.581 0.291 3.155 0.595 4.75 0.853 2.184 0.353 4.381 0.63 6.586 0.915 1.422 0.179 2.837 0.387 4.264 0.541 2.496 0.262 5.013 0.45 7.538 0.624 1.171 0.083 2.336 0.208 3.515 0.27 3.682 0.208 7.405 0.318 11.155 0.318s7.474-0.11 11.17-0.306c1.179-0.063 2.344-0.187 3.515-0.27 2.523-0.179 5.040-0.36 7.536-0.624 1.429-0.152 2.843-0.36 4.264-0.541 2.205-0.283 4.403-0.562 6.587-0.915 1.587-0.256 3.168-0.562 4.749-0.853 1.963-0.36 3.925-0.728 5.873-1.144 1.739-0.375 3.465-0.782 5.2-1.198 1.706-0.416 3.411-0.84 5.103-1.29 1.928-0.514 3.842-1.069 5.747-1.637 1.393-0.416 2.774-0.853 4.154-1.296 2.157-0.694 4.299-1.414 6.427-2.177 0.978-0.353 1.949-0.728 2.926-1.096 2.475-0.928 4.93-1.885 7.363-2.904 0.346-0.146 0.686-0.306 1.032-0.451 30.064-12.834 57.054-32.697 78.541-58.608 0.083-0.096 0.091-0.235 0.166-0.333 29.744-35.997 47.646-82.125 47.646-132.357 0-114.691-93.309-208-208-208zM308.288 398.859c-0.104 0.048-0.2 0.104-0.304 0.152-2.475 1.192-4.992 2.315-7.53 3.411-0.576 0.243-1.144 0.493-1.72 0.735-2.219 0.93-4.466 1.81-6.725 2.656-0.944 0.353-1.887 0.701-2.837 1.034-2.003 0.714-4.014 1.4-6.045 2.051-1.262 0.403-2.531 0.784-3.8 1.159-1.803 0.541-3.613 1.061-5.443 1.546-1.539 0.41-3.091 0.784-4.645 1.152-1.629 0.387-3.251 0.782-4.894 1.13-1.797 0.381-3.606 0.707-5.408 1.034-1.464 0.27-2.92 0.553-4.397 0.791-2.030 0.318-4.083 0.574-6.128 0.832-1.298 0.166-2.587 0.36-3.898 0.499-2.336 0.25-4.693 0.408-7.043 0.574-1.048 0.070-2.088 0.187-3.149 0.243-3.432 0.181-6.87 0.277-10.323 0.277s-6.891-0.096-10.317-0.277c-1.054-0.056-2.094-0.166-3.147-0.243-2.359-0.158-4.709-0.325-7.045-0.574-1.31-0.139-2.6-0.333-3.896-0.499-2.046-0.258-4.098-0.514-6.13-0.832-1.477-0.237-2.933-0.52-4.395-0.791-1.81-0.326-3.619-0.659-5.408-1.034-1.643-0.347-3.274-0.742-4.896-1.13-1.552-0.375-3.106-0.742-4.645-1.152-1.824-0.485-3.64-1.011-5.443-1.546-1.269-0.375-2.538-0.755-3.798-1.159-2.032-0.651-4.049-1.337-6.046-2.051-0.95-0.341-1.893-0.686-2.836-1.034-2.26-0.847-4.507-1.726-6.725-2.656-0.575-0.235-1.137-0.485-1.712-0.728-2.538-1.088-5.054-2.218-7.536-3.411-0.104-0.048-0.201-0.096-0.305-0.152-24.19-11.704-45.559-28.315-62.899-48.491 13.402-49.352 51.341-89.136 100.152-104.965 0.963 0.59 1.97 1.117 2.96 1.672 0.582 0.325 1.159 0.672 1.747 0.984 2.067 1.096 4.16 2.121 6.302 3.043 1.643 0.721 3.343 1.331 5.033 1.955 0.333 0.119 0.665 0.25 0.998 0.368 9.401 3.328 19.462 5.235 29.987 5.235s20.586-1.907 29.979-5.235c0.333-0.119 0.665-0.25 0.998-0.368 1.693-0.624 3.39-1.234 5.033-1.955 2.142-0.922 4.237-1.947 6.302-3.043 0.59-0.318 1.165-0.659 1.747-0.984 0.992-0.555 2.005-1.082 2.975-1.678 48.811 15.835 86.744 55.619 100.152 104.963-17.339 20.17-38.709 36.782-62.899 48.493zM147.733 168.533c0-42.050 34.216-76.266 76.267-76.266s76.267 34.216 76.267 76.266c0 26.749-13.874 50.288-34.778 63.906-2.733 1.775-5.574 3.362-8.495 4.749-0.346 0.166-0.686 0.339-1.032 0.499-20.080 9.131-43.846 9.131-63.926 0-0.346-0.16-0.693-0.333-1.032-0.499-2.926-1.387-5.761-2.975-8.495-4.749-20.904-13.618-34.777-37.157-34.777-63.906zM381.587 337.173c-15.717-46.411-51.576-83.922-97.392-101.739 18.325-16.509 29.938-40.346 29.938-66.901 0-49.698-40.435-90.133-90.133-90.133s-90.133 40.435-90.133 90.133c0 26.555 11.613 50.392 29.945 66.901-45.815 17.826-81.674 55.328-97.392 101.739-22.97-31.886-36.553-70.963-36.553-113.173 0-107.044 87.090-194.133 194.133-194.133s194.133 87.090 194.133 194.133c0 42.21-13.582 81.286-36.546 113.173z"></path>
  </symbol>
  <symbol version="1.1" xmlns="http://www.w3.org/2000/svg" viewBox="0 0 448 448" id="language">
    <path fill="currentColor" d="M224 448c59.408 0 116.383-23.599 158.392-65.608s65.608-98.984 65.608-158.392c0-59.409-23.599-116.384-65.608-158.392s-98.984-65.608-158.392-65.608c-59.409 0-116.384 23.6-158.392 65.608s-65.608 98.984-65.608 158.392c0 59.408 23.6 116.383 65.608 158.392s98.984 65.608 158.392 65.608zM224 28c18.396 0 39.396 16.52 56.617 53.424 6.076 13.048 11.367 28.056 15.651 44.576h-144.536c4.284-16.52 9.576-31.528 15.68-44.576 17.164-36.904 38.163-53.424 56.588-53.424zM142.016 69.58c-8.268 18.111-14.676 37.014-19.124 56.42h-68.684c23.635-40.859 61.184-71.848 105.784-87.304-6.748 9.24-12.768 19.712-17.976 30.884zM117.376 154c-3.62 23.156-5.418 46.563-5.376 70 0 24.359 1.876 47.936 5.404 70h-76.524c-8.529-22.352-12.895-46.077-12.88-70 0-24.64 4.564-48.272 12.88-70h76.496zM122.892 322c4.928 20.804 11.396 39.817 19.124 56.42 5.208 11.172 11.228 21.644 17.976 30.883-44.6-15.454-82.149-46.444-105.784-87.303h68.684zM151.732 322h144.536c-3.865 15.302-9.114 30.223-15.68 44.576-17.164 36.905-38.163 53.424-56.588 53.424s-39.396-16.519-56.616-53.424c-6.548-14.355-11.805-29.275-15.652-44.576zM302.26 294h-156.492c-3.874-23.131-5.803-46.547-5.768-70 0-24.724 2.044-48.3 5.768-70h156.463c3.725 21.7 5.769 45.276 5.769 70s-2.044 48.3-5.769 70zM325.108 322h68.684c-23.636 40.859-61.183 71.849-105.783 87.303 6.748-9.239 12.768-19.71 17.975-30.883 7.728-16.604 14.196-35.616 19.124-56.42zM407.148 294h-76.551c3.527-22.064 5.404-45.641 5.404-70s-1.876-47.936-5.404-70h76.524c8.316 21.728 12.88 45.36 12.88 70s-4.537 48.272-12.852 70zM287.98 38.696c44.611 15.45 82.17 46.44 105.812 87.304h-68.713c-4.447-19.406-10.855-38.309-19.123-56.42-4.981-10.851-11-21.194-17.977-30.884z"></path>
  </symbol>
  <symbol version="1.1" xmlns="http://www.w3.org/2000/svg" viewBox="0 0 396 448" id="shop">
    <path  fill="currentColor" d="M396.234 433.275l-34.801-324.252c-0.731-6.788-6.579-11.942-13.556-11.942h-65.412v-14.591c0-45.483-37.823-82.489-84.31-82.489-46.49 0-84.314 37.006-84.314 82.489v14.591h-65.411c-6.976 0-12.824 5.154-13.555 11.942l-34.802 324.252c-0.402 3.756 0.845 7.507 3.427 10.316 2.585 2.807 6.267 4.41 10.128 4.41h369.046c3.865 0 7.547-1.603 10.128-4.41 2.588-2.809 3.832-6.56 3.43-10.316zM141.097 82.489c0-30.779 25.596-55.822 57.058-55.822 31.458 0 57.054 25.043 57.054 55.822v14.592h-114.113v-14.592zM28.762 421.334l31.941-297.586h53.139v29.384c0 7.362 6.103 13.333 13.628 13.333s13.628-5.971 13.628-13.333v-29.384h114.113v29.384c0 7.362 6.103 13.333 13.628 13.333s13.628-5.971 13.628-13.333v-29.384h53.14l31.941 297.586h-338.784z"></path>
  </symbol>
  <symbol version="1.1" xmlns="http://www.w3.org/2000/svg" viewBox="0 0 348 448" id="pin">
    <path fill="currentColor" d="M165.493 0c-91.255 0-165.493 74.238-165.493 165.493 0 30.042 13.473 62.352 14.038 63.715 4.351 10.328 12.938 26.371 19.129 35.776l113.47 171.927c4.644 7.049 11.516 11.088 18.856 11.088s14.213-4.039 18.857-11.078l113.481-171.938c6.2-9.405 14.777-25.448 19.127-35.776 0.565-1.353 14.030-33.663 14.030-63.715 0-91.255-74.238-165.493-165.494-165.493zM299.008 221.654c-3.885 9.258-11.877 24.181-17.435 32.611l-113.481 171.94c-2.239 3.397-2.95 3.397-5.189 0l-113.48-171.94c-5.559-8.43-13.551-23.363-17.435-32.621-0.165-0.399-12.519-30.139-12.519-56.151 0-80.517 65.506-146.023 146.023-146.023s146.023 65.506 146.023 146.023c0 26.050-12.382 55.869-12.509 56.161z"></path>
    <path fill="currentColor" d="M165.489 77.889c-48.314 0-87.614 39.309-87.614 87.614s39.3 87.615 87.614 87.615c48.314 0 87.614-39.31 87.614-87.615s-39.299-87.614-87.614-87.614zM165.489 233.647c-37.567 0-68.144-30.568-68.144-68.144s30.577-68.144 68.144-68.144c37.567 0 68.144 30.568 68.144 68.144s-30.577 68.144-68.144 68.144z"></path>
  </symbol>
  <symbol version="1.1" xmlns="http://www.w3.org/2000/svg" viewBox="0 0 448 448" id="phone">
    <path fill="currentColor" d="M412.63 294.973c-27.634 0-54.701-4.316-80.379-12.803-12.522-4.316-26.716-0.99-34.969 7.404l-50.859 38.409c-58.335-31.124-95.684-68.45-126.43-126.406l37.373-49.657c9.408-9.431 12.78-23.178 8.748-36.076-8.513-25.796-12.851-52.888-12.851-80.476 0-19.5-15.868-35.368-35.368-35.368h-82.527c-19.5 0-35.368 15.868-35.368 35.368 0 227.513 185.119 412.632 412.63 412.632 19.5 0 35.37-15.869 35.37-35.37v-82.29c0-19.498-15.869-35.367-35.37-35.367zM424.42 412.63c0 6.508-5.304 11.79-11.79 11.79-214.521 0-389.052-174.531-389.052-389.052 0-6.508 5.305-11.79 11.79-11.79h82.527c6.485 0 11.79 5.282 11.79 11.79 0 30.111 4.716 59.679 13.958 87.714 1.367 4.409 0.259 8.96-4.055 13.44l-42.914 56.825c-2.711 3.608-3.136 8.441-1.085 12.45 34.967 68.685 77.434 111.176 146.615 146.615 3.984 2.073 8.865 1.65 12.474-1.085l58.051-43.998c3.161-3.111 7.805-4.196 12.002-2.805 28.202 9.313 57.77 14.028 87.902 14.028 6.486 0 11.79 5.284 11.79 11.79v82.29h-0.003z"></path>
  </symbol>
  <symbol version="1.1" xmlns="http://www.w3.org/2000/svg" viewBox="0 0 448 448" id="email">
    <path fill="currentColor" d="M410.667 56h-373.333c-20.59 0-37.334 16.743-37.334 37.334v261.333c0 20.59 16.743 37.333 37.334 37.333h373.333c20.591 0 37.333-16.743 37.333-37.333v-261.333c0-20.591-16.743-37.334-37.333-37.334zM37.334 74.666h373.333c1.376 0 2.588 0.501 3.878 0.785-32.321 29.581-139.495 127.627-176.999 161.418-2.935 2.643-7.665 5.797-13.544 5.797s-10.609-3.153-13.554-5.806c-37.502-33.786-144.681-131.837-176.998-161.408 1.293-0.284 2.508-0.787 3.884-0.787zM18.666 354.667v-261.333c0-1.829 0.551-3.488 1.045-5.159 24.738 22.642 99.519 91.052 148.008 135.146-48.331 41.517-123.132 112.433-148.067 136.211-0.44-1.588-0.986-3.141-0.986-4.866zM410.667 373.333h-373.333c-1.491 0-2.817-0.52-4.209-0.851 25.766-24.563 101.042-95.889 148.524-136.509 6.19 5.615 11.844 10.735 16.301 14.749 7.693 6.947 16.698 10.61 26.050 10.61s18.357-3.664 26.041-10.6c4.458-4.018 10.117-9.142 16.31-14.759 47.485 40.617 122.749 111.936 148.524 136.509-1.391 0.331-2.716 0.851-4.209 0.851zM429.333 354.667c0 1.725-0.545 3.278-0.986 4.866-24.944-23.791-99.735-94.7-148.067-136.211 48.491-44.093 123.26-112.499 148.007-135.149 0.495 1.671 1.045 3.331 1.045 5.16v261.334z"></path>
  </symbol>
  <symbol version="1.1" xmlns="http://www.w3.org/2000/svg" viewBox="0 0 448 448" id="check">
    <path fill="currentColor" d="M388.755 55.805l59.245 59.247-277.142 277.141-170.858-170.853 59.245-59.247 111.612 111.609 217.897-217.896z"></path>
  </symbol>
  <symbol version="1.1" xmlns="http://www.w3.org/2000/svg" viewBox="0 0 476 448" id="sort">
    <path fill="currentColor" d="M334.471 416.906c0 17.156 13.577 31.060 30.327 31.060h-0.056c16.75 0 30.33-13.905 30.33-31.058l-0.031-310.919 29.218 29.893c11.824 12.14 31.007 12.14 42.86 0 11.855-12.109 11.855-31.754 0-43.894l-80.951-82.904c-0.031-0.063-0.092-0.095-0.092-0.095v-0.031l-0.031-0.032c-0.398-0.189-0.092-0.063-0.092-0.063l-0.031-0.063h-0.031c-2.831-2.838-6.065-4.982-9.512-6.464h-0.031l-0.031-0.031c-7.207-3.090-16.26-3.090-23.402 0.095l-0.031 0.031v0.032c-3.478 1.514-6.712 3.721-9.542 6.622l-80.92 82.872c-11.854 12.109-11.854 31.754 0 43.894 11.823 12.14 31.004 12.14 42.859 0l29.159-29.862 0.031 310.917z"></path>
    <path fill="currentColor" d="M111.269 447.961h-0.185c-8.344-0.062-15.856-3.531-21.306-9.142l-80.887-82.841c-11.854-12.141-11.854-31.786 0-43.893 11.854-12.141 31.036-12.141 42.859 0l29.219 29.893-0.031-310.918c0-17.154 13.579-31.060 30.328-31.060s30.328 13.906 30.328 31.060l0.031 310.918 29.158-29.893c11.854-12.141 31.036-12.141 42.859 0 11.854 12.141 11.854 31.786 0 43.893l-80.919 82.905c-0.308 0.314-0.616 0.63-0.985 0.977l-0.062 0.062c0 0 0.005-0.078-0.092 0.095-5.327 4.92-12.347 7.916-20.106 7.977h-0.185l-0.026-0.034z"></path>
  </symbol>
  <symbol version="1.1" xmlns="http://www.w3.org/2000/svg" viewBox="0 0 448 448" id="filter">
    <path fill="none" stroke-linejoin="miter" stroke-linecap="round" stroke-miterlimit="10" stroke-width="28" stroke="currentColor" d="M396.667 224h-230.627M84.635 224h-33.301M84.635 224c0-10.793 4.288-21.144 11.919-28.775s17.982-11.918 28.774-11.918c10.793 0 21.143 4.288 28.774 11.918s11.919 17.982 11.919 28.775c0 10.793-4.288 21.144-11.919 28.775s-17.982 11.919-28.774 11.919c-10.793 0-21.143-4.288-28.774-11.919s-11.919-17.982-11.919-28.775zM396.667 347.331h-107.296M289.371 347.331c0 10.795-4.297 21.157-11.932 28.791-7.633 7.633-17.985 11.921-28.78 11.921-10.793 0-21.144-4.306-28.775-11.937s-11.919-17.982-11.919-28.775M289.371 347.331c0-10.795-4.297-21.138-11.932-28.771-7.633-7.635-17.985-11.922-28.78-11.922-10.793 0-21.144 4.288-28.775 11.919s-11.919 17.982-11.919 28.775M207.965 347.331h-156.632M396.667 100.67h-57.96M257.301 100.67h-205.968M257.301 100.67c0-10.793 4.288-21.143 11.919-28.774s17.982-11.919 28.775-11.919c5.344 0 10.636 1.053 15.574 3.098 4.935 2.045 9.423 5.043 13.201 8.821s6.776 8.265 8.822 13.202c2.044 4.937 3.097 10.229 3.097 15.573s-1.053 10.636-3.097 15.573c-2.046 4.937-5.044 9.423-8.822 13.202s-8.266 6.776-13.201 8.821c-4.937 2.045-10.229 3.097-15.574 3.097-10.793 0-21.144-4.287-28.775-11.919s-11.919-17.982-11.919-28.775z"></path>
  </symbol>
  <symbol version="1.1" xmlns="http://www.w3.org/2000/svg" viewBox="0 0 448 448" id="arrow-back">
    <path fill="currentColor" d="M295.297 365.658c4.493-4.491 4.493-11.751 0-16.242l-118.234-118.237 118.234-118.235c4.493-4.491 4.493-11.751 0-16.243-4.491-4.491-11.751-4.491-16.242 0l-126.357 126.357c-2.24 2.24-3.366 5.18-3.366 8.12 0 2.942 1.126 5.882 3.366 8.122l126.357 126.357c4.491 4.491 11.751 4.491 16.242 0z"></path>
  </symbol>
  <symbol version="1.1" xmlns="http://www.w3.org/2000/svg" viewBox="0 0 448 448" id="plus">
    <path  fill="currentColor"  d="M224 0c-9.897 0-17.92 8.023-17.92 17.92v188.16h-188.16c-9.897 0-17.92 8.023-17.92 17.92s8.023 17.92 17.92 17.92h188.16v188.16c0 9.898 8.023 17.92 17.92 17.92s17.92-8.022 17.92-17.92v-188.16h188.16c9.898 0 17.92-8.023 17.92-17.92s-8.022-17.92-17.92-17.92h-188.16v-188.16c0-9.897-8.023-17.92-17.92-17.92z"></path>
  </symbol>
  <symbol version="1.1" xmlns="http://www.w3.org/2000/svg" viewBox="0 0 367 448" id="trash">
    <path fill="currentColor" d="M289.078 405.803l11.736-281.669c0.368-8.829 7.824-15.688 16.653-15.32 8.827 0.368 15.686 7.823 15.32 16.652l-11.738 281.668c-0.943 22.669-19.967 40.866-42.65 40.866h-204.799c-22.697 0-41.707-18.228-42.65-40.866l-11.736-281.668c-0.368-8.829 6.491-16.284 15.32-16.652s16.284 6.491 16.652 15.32l11.736 281.669c0.229 5.496 5.133 10.198 10.678 10.198h204.799c5.547 0 10.448-4.69 10.679-10.198zM163.2 368v-217.599c0-7.070 5.731-12.8 12.8-12.8s12.8 5.731 12.8 12.8v217.599c0 7.070-5.731 12.8-12.8 12.8s-12.8-5.73-12.8-12.8zM99.205 368.376l-6.4-217.6c-0.208-7.066 5.352-12.963 12.418-13.171s12.963 5.352 13.171 12.418l6.4 217.601c0.208 7.066-5.352 12.961-12.418 13.169s-12.963-5.351-13.171-12.418zM227.205 367.625l6.4-217.601c0.208-7.066 6.105-12.626 13.171-12.418s12.625 6.104 12.418 13.171l-6.4 217.6c-0.208 7.066-6.105 12.625-13.171 12.418s-12.625-6.103-12.418-13.169zM254.812 54.4h81.188c8.836 0 16 7.164 16 16s-7.164 16-16 16h-320c-8.837 0-16-7.164-16-16s7.164-16 16-16h81.188l6.090-21.314c5.352-18.733 24.384-33.086 43.868-33.086h57.708c19.486 0 38.514 14.348 43.867 33.086l6.091 21.314zM204.854 32h-57.708c-5.197 0-11.672 4.883-13.099 9.877l-3.578 12.523h91.063l-3.578-12.523c-1.429-4.998-7.899-9.877-13.1-9.877z"></path>
  </symbol>
  <symbol version="1.1" xmlns="http://www.w3.org/2000/svg" viewBox="0 0 2539 448" id="minus">
    <path fill="currentColor"  d="M1167.787 122.455h1269.333c56.090 0 101.547 45.462 101.547 101.547 0 56.084-45.457 101.547-101.547 101.547h-2335.573c-56.084 0-101.547-45.463-101.547-101.547 0-56.085 45.462-101.547 101.547-101.547h1066.24z"></path>
  </symbol>
  <symbol version="1.1" xmlns="http://www.w3.org/2000/svg" viewBox="0 0 407 448" id="exit">
    <path fill="none" stroke-linejoin="round" stroke-linecap="round" stroke-miterlimit="4" stroke-width="30.5455" stroke="currentColor" d="M274.909 20.363h-254.545v356.363c0 13.501 5.364 26.45 14.911 35.999 9.547 9.547 22.496 14.91 35.998 14.91h203.637M300.363 300.363l76.363-76.363M376.727 224l-76.363-76.363M376.727 224h-254.545"></path>
  </symbol>
  <symbol version="1.1" xmlns="http://www.w3.org/2000/svg" viewBox="0 0 448 448" id="user">
    <path fill="none" stroke-linejoin="miter" stroke-linecap="butt" stroke-miterlimit="4" stroke-width="17.2308" stroke="currentColor" d="M98 392v-14c0-29.704 11.8-58.192 32.804-79.196s49.492-32.804 79.196-32.804h28c29.704 0 58.192 11.8 79.196 32.804s32.804 49.492 32.804 79.196v14M294 140c0 18.565-7.375 36.371-20.503 49.497-13.126 13.128-30.933 20.503-49.497 20.503s-36.371-7.375-49.497-20.503c-13.128-13.126-20.503-30.932-20.503-49.497s7.375-36.37 20.503-49.497c13.126-13.128 30.933-20.503 49.497-20.503s36.371 7.375 49.497 20.503c13.128 13.128 20.503 30.932 20.503 49.497z"></path>
  </symbol>
  <symbol version="1.1" xmlns="http://www.w3.org/2000/svg" viewBox="0 0 468 448" id="bell">
    <path fill="currentColor" d="M449.042 333.191c-2.273 0-53.289-9.093-53.289-157.847 0-105.063-61.119-170.475-162.141-170.475s-162.14 65.412-162.14 170.475c0 151.533-52.784 157.847-52.532 157.847-5.024 0-9.842 1.995-13.394 5.547-3.552 3.551-5.548 8.37-5.548 13.393s1.995 9.842 5.548 13.393c3.552 3.553 8.37 5.547 13.394 5.547h121.984c4.216 21.486 15.765 40.838 32.672 54.75s38.122 21.518 60.015 21.518c21.896 0 43.11-7.606 60.016-21.518s28.456-33.263 32.671-54.75h122.238c5.023 0 9.84-1.995 13.393-5.547 3.551-3.551 5.548-8.37 5.548-13.393s-1.996-9.842-5.548-13.393c-3.553-3.553-8.37-5.547-13.393-5.547h0.504zM233.612 408.956c-11.71-0.021-23.127-3.678-32.671-10.464-9.545-6.784-16.749-16.366-20.618-27.419h106.577c-3.868 11.054-11.071 20.635-20.618 27.419-9.545 6.786-20.958 10.442-32.671 10.464zM76.019 333.191c18.184-27.529 33.337-75.767 33.337-157.847s45.46-132.591 124.257-132.591c78.797 0 124.258 48.238 124.258 132.591s15.152 130.319 33.337 157.847h-315.188z"></path>
  </symbol>
  <symbol version="1.1" xmlns="http://www.w3.org/2000/svg" viewBox="0 0 560 448" id="data">
    <path fill="currentColor" d="M199.458 75.009c-9.030 0-17.972 1.779-26.316 5.235s-15.924 8.521-22.309 14.906c-6.386 6.386-11.451 13.966-14.906 22.309s-5.234 17.285-5.234 26.316c0 9.030 1.778 17.972 5.234 26.316s8.521 15.924 14.906 22.309c6.386 6.385 13.966 11.451 22.309 14.907s17.285 5.234 26.316 5.234c18.238 0 35.729-7.245 48.625-20.141s20.142-30.387 20.142-48.625c0-18.238-7.246-35.729-20.142-48.625s-30.387-20.141-48.625-20.141zM168.2 143.775c0-8.29 3.293-16.24 9.155-22.102s13.812-9.155 22.102-9.155c8.29 0 16.24 3.293 22.102 9.155 5.863 5.862 9.156 13.812 9.156 22.102s-3.293 16.24-9.156 22.102c-5.862 5.862-13.812 9.155-22.102 9.155s-16.24-3.293-22.102-9.155c-5.862-5.862-9.155-13.812-9.155-22.102zM199.458 225.044c-29.907 0-57.889 6.001-79.118 16.63-20.079 10.051-39.659 27.406-39.659 52.136v1.577c-0.050 12.752-0.1 34.256 20.255 48.984 9.452 6.828 21.93 11.204 37.384 13.98 15.579 2.8 35.558 4.224 61.139 4.224s45.56-1.424 61.139-4.224c15.454-2.776 27.93-7.152 37.383-14.004 20.355-14.728 20.306-36.207 20.254-48.986v-1.55c0-24.754-19.58-42.085-39.659-52.136-21.228-10.602-49.21-16.63-79.118-16.63zM118.189 293.81c0-2.874 2.826-10.526 18.929-18.578 15.004-7.502 37.009-12.678 62.34-12.678s47.361 5.177 62.34 12.678c16.103 8.053 18.928 15.704 18.928 18.578 0 15.104-0.974 17.43-4.751 20.18-3.051 2.2-9.327 5.152-22.004 7.452-12.553 2.249-30.083 3.624-54.513 3.624s-41.96-1.375-54.513-3.624c-12.678-2.3-18.954-5.253-22.005-7.452-3.801-2.751-4.751-5.076-4.751-20.18z"></path>
    <path fill="currentColor" d="M449.508 237.563c4.975 0 9.746-1.976 13.263-5.492s5.492-8.288 5.492-13.262c0-4.974-1.976-9.744-5.492-13.261s-8.288-5.493-13.263-5.493h-100.023c-4.973 0-9.744 1.976-13.261 5.493s-5.492 8.287-5.492 13.261c0 4.974 1.976 9.745 5.492 13.262s8.288 5.492 13.261 5.492h100.023zM468.263 143.792c0 4.974-1.976 9.744-5.492 13.261s-8.288 5.493-13.263 5.493h-125.028c-4.975 0-9.744-1.976-13.261-5.493-3.519-3.517-5.495-8.287-5.495-13.261s1.976-9.744 5.495-13.261c3.517-3.517 8.286-5.493 13.261-5.493h125.028c4.975 0 9.746 1.976 13.263 5.493s5.492 8.287 5.492 13.261zM449.508 312.581c4.975 0 9.746-1.976 13.263-5.492s5.492-8.288 5.492-13.261c0-4.975-1.976-9.744-5.492-13.263-3.517-3.517-8.288-5.492-13.263-5.492h-75.018c-4.973 0-9.744 1.976-13.261 5.492-3.517 3.519-5.492 8.288-5.492 13.263 0 4.973 1.976 9.744 5.492 13.261s8.288 5.492 13.261 5.492h75.018z"></path>
    <path fill="currentColor" d="M222.975 0h102.823c45.96 0 82.369 0 110.851 3.826 29.308 3.951 53.039 12.253 71.768 30.957 18.704 18.729 27.006 42.46 30.957 71.767 3.826 28.507 3.826 64.89 3.826 110.851v2.801c0 45.96 0 82.369-3.826 110.851-3.952 29.306-12.253 53.036-30.957 71.768-18.729 18.704-42.459 27.006-71.768 30.957-28.506 3.826-64.89 3.826-110.851 3.826h-102.798c-45.961 0-82.369 0-110.851-3.826-29.307-3.952-53.037-12.253-71.767-30.957-18.704-18.731-27.006-42.462-30.957-71.768-3.826-28.506-3.826-64.89-3.826-110.851v-2.801c0-45.961 0-82.369 3.826-110.851 3.951-29.307 12.253-53.037 30.957-71.767 18.729-18.704 42.46-27.006 71.767-30.957 28.507-3.826 64.865-3.826 110.826-3.826zM117.101 41.010c-25.156 3.376-39.659 9.727-50.262 20.305-10.552 10.577-16.904 25.081-20.279 50.237-3.451 25.706-3.501 59.564-3.501 107.25s0.050 81.57 3.501 107.276c3.376 25.13 9.727 39.632 20.305 50.21 10.577 10.58 25.081 16.93 50.237 20.306 25.706 3.452 59.564 3.501 107.251 3.501h100.023c47.685 0 81.57-0.049 107.274-3.501 25.133-3.376 39.634-9.726 50.212-20.306 10.577-10.577 16.93-25.079 20.306-50.236 3.452-25.704 3.501-59.564 3.501-107.249 0-47.686-0.049-81.544-3.501-107.275-3.376-25.131-9.728-39.634-20.306-50.212s-25.079-16.929-50.236-20.305c-25.68-3.451-59.564-3.501-107.249-3.501h-100.023c-47.687 0-81.52 0.050-107.251 3.501z"></path>
  </symbol>
  <symbol version="1.1" xmlns="http://www.w3.org/2000/svg" viewBox="0 0 560 448" id="payment">
    <path fill="currentColor" d="M475.209 9.034h-402.32c-17.939 0-35.144 7.126-47.828 19.811s-19.811 29.889-19.811 47.828v294.098c0 17.938 7.126 35.144 19.811 47.828s29.89 19.81 47.828 19.81h402.32c17.94 0 35.146-7.126 47.828-19.81 12.685-12.685 19.813-29.89 19.813-47.828v-294.098c0-17.939-7.128-35.143-19.813-47.828-12.683-12.685-29.888-19.811-47.828-19.811zM515.794 277.7h-173.698c-14.352 0-28.114-5.701-38.262-15.85-10.15-10.147-15.85-23.91-15.85-38.262s5.701-28.115 15.85-38.263c10.147-10.148 23.91-15.849 38.262-15.849h173.698v108.224zM342.095 142.42c-21.526 0-42.172 8.551-57.393 23.773-15.223 15.222-23.773 35.867-23.773 57.394s8.55 42.173 23.773 57.394c15.221 15.223 35.867 23.773 57.393 23.773h173.698v66.017c0 10.763-4.276 21.085-11.886 28.697-7.612 7.612-17.934 11.888-28.699 11.888h-402.32c-10.763 0-21.086-4.276-28.697-11.888s-11.886-17.934-11.886-28.697v-294.098c0-10.763 4.276-21.086 11.886-28.697s17.934-11.887 28.697-11.887h402.32c10.766 0 21.088 4.276 28.699 11.887 7.609 7.611 11.886 17.934 11.886 28.697v65.746h-173.698z"></path>
    <path fill="currentColor" d="M342.232 250.681c14.941 0 27.055-12.114 27.055-27.056s-12.114-27.056-27.055-27.056c-14.943 0-27.057 12.113-27.057 27.056s12.114 27.056 27.057 27.056z"></path>
  </symbol>
  <symbol version="1.1" xmlns="http://www.w3.org/2000/svg" viewBox="0 0 448 448" id="orders">
    <path fill="currentColor" d="M28 106.624v296.156c0 5.021 1.615 9.147 4.844 12.376s7.364 4.844 12.404 4.844h357.532c5.021 0 9.147-1.615 12.376-4.844s4.844-7.355 4.844-12.376v-296.156h-112v190.064l-84-42-84 42v-190.064h-112zM45.248 448c-12.544 0-23.221-4.405-32.032-13.216s-13.216-19.479-13.216-32.004v-305.172c0-5.451 0.868-10.584 2.604-15.4s4.349-9.249 7.84-13.3l43.624-52.36c4.051-5.469 9.119-9.595 15.204-12.376s12.609-4.172 19.572-4.172h269.248c6.944 0 13.552 1.391 19.824 4.172s11.433 6.897 15.484 12.348l44.156 53.48c3.491 4.051 6.104 8.577 7.84 13.58 1.736 4.984 2.604 10.211 2.604 15.68v303.52c0 12.507-4.405 23.175-13.216 32.004-8.811 8.811-19.479 13.216-32.004 13.216h-357.532zM38.64 78.624h370.16l-37.24-44.744c-1.811-1.792-3.883-3.22-6.216-4.284s-4.76-1.596-7.28-1.596h-268.688c-2.501 0-4.928 0.541-7.28 1.624s-4.405 2.52-6.16 4.312l-37.296 44.688zM167.972 106.624v144.284l56-28 56 28v-144.256l-112-0.028z"></path>
  </symbol>
  <symbol version="1.1" xmlns="http://www.w3.org/2000/svg" viewBox="0 0 448 448" id="pdf">
    <path fill="currentColor" d="M56 406h42v42h-42c-30.887 0-56-25.113-56-56v-336c0-30.887 25.113-56 56-56h144.813c14.875 0 29.137 5.862 39.638 16.363l79.186 79.188c10.501 10.5 16.363 24.763 16.363 39.638v130.813h-42v-126h-70c-15.487 0-28-12.513-28-28v-70h-140c-7.7 0-14 6.3-14 14v336c0 7.701 6.3 14 14 14zM154 308h28c27.037 0 49 21.963 49 49s-21.963 49-49 49h-14v28c0 7.701-6.3 14-14 14s-14-6.299-14-14v-112c0-7.701 6.3-14 14-14zM182 378c11.638 0 21-9.363 21-21s-9.362-21-21-21h-14v42h14zM266 308h28c23.188 0 42 18.812 42 42v56c0 23.188-18.812 42-42 42h-28c-7.701 0-14-6.299-14-14v-112c0-7.701 6.299-14 14-14zM294 420c7.701 0 14-6.299 14-14v-56c0-7.701-6.299-14-14-14h-14v84h14zM364 322c0-7.701 6.299-14 14-14h42c7.701 0 14 6.299 14 14s-6.299 14-14 14h-28v28h28c7.701 0 14 6.299 14 14s-6.299 14-14 14h-28v42c0 7.701-6.299 14-14 14s-14-6.299-14-14v-112z"></path>
  </symbol>
  <symbol version="1.1" xmlns="http://www.w3.org/2000/svg" viewBox="0 0 448 448" id="file">
    <path fill="currentColor" d="M44.858 14.933v-14.933c-3.961 0-7.759 1.573-10.559 4.374s-4.374 6.599-4.374 10.559h14.933zM403.258 14.933h14.934c0-3.961-1.575-7.759-4.375-10.559s-6.599-4.374-10.56-4.374v14.933zM403.258 433.066l-6.691 13.35c2.278 1.142 4.809 1.682 7.352 1.568 2.545-0.112 5.018-0.874 7.184-2.211 2.168-1.34 3.956-3.208 5.197-5.432s1.893-4.728 1.893-7.276h-14.934zM343.524 403.2l6.691-13.35c-2.076-1.042-4.368-1.582-6.691-1.582s-4.612 0.54-6.688 1.582l6.688 13.35zM283.792 433.066l-6.691 13.35c2.076 1.042 4.368 1.584 6.691 1.584s4.612-0.542 6.688-1.584l-6.688-13.35zM224.058 403.2l6.691-13.35c-2.076-1.042-4.368-1.582-6.691-1.582s-4.613 0.54-6.69 1.582l6.69 13.35zM164.325 433.066l-6.69 13.35c2.077 1.042 4.367 1.584 6.69 1.584s4.613-0.542 6.69-1.584l-6.69-13.35zM44.858 433.066h-14.933c0 2.547 0.651 5.051 1.892 7.276s3.029 4.092 5.196 5.432c2.167 1.337 4.64 2.099 7.184 2.211 2.544 0.114 5.075-0.426 7.351-1.568l-6.69-13.35zM104.592 403.2l6.69-13.35c-2.077-1.042-4.367-1.582-6.69-1.582s-4.613 0.54-6.69 1.582l6.69 13.35zM44.858 29.866h358.4v-29.866h-358.4v29.866zM388.324 14.933v418.133h29.868v-418.133h-29.868zM409.949 419.716l-59.734-29.866-13.38 26.701 59.732 29.866 13.382-26.701zM336.836 389.85l-59.734 29.866 13.38 26.701 59.734-29.866-13.38-26.701zM290.481 419.716l-59.732-29.866-13.381 26.701 59.733 29.866 13.38-26.701zM217.368 389.85l-59.734 29.866 13.38 26.701 59.734-29.866-13.381-26.701zM59.792 433.066v-418.133h-29.866v418.133h29.866zM171.015 419.716l-59.733-29.866-13.381 26.701 59.734 29.866 13.38-26.701zM97.902 389.85l-59.733 29.866 13.38 26.701 59.734-29.866-13.381-26.701zM119.525 149.334h59.733v-29.867h-59.733v29.867zM238.992 149.334h89.6v-29.867h-89.6v29.867zM119.525 238.934h59.733v-29.868h-59.733v29.868zM238.992 238.934h89.6v-29.868h-89.6v29.868zM238.992 328.534h89.6v-29.868h-89.6v29.868z"></path>
  </symbol>
  <symbol version="1.1" xmlns="http://www.w3.org/2000/svg" viewBox="0 0 448 448" id="calendar">
    <path fill="currentColor" d="M111.988 0c-8.837 0-16 7.164-16 16v32h32v-32c0-8.837-7.163-16-15.999-16z"></path>
    <path fill="currentColor" d="M335.989 0c-8.837 0-16 7.164-16 16v32h31.998v-32c0.002-8.837-7.161-16-15.998-16z"></path>
    <path fill="currentColor" d="M399.999 47.994h-47.999v64c0 8.837-7.164 16-16 16s-16-7.163-16-16v-64h-192v64c0 8.837-7.164 16-16 16s-16-7.163-16-16v-64h-47.999c-26.51 0-48 21.49-48 48v304.001c0 26.508 21.49 47.999 48 47.999h351.999c26.51 0 48.001-21.49 48.001-47.999v-304.001c0-26.509-21.49-48-48.001-48zM416 399.994c0 8.837-7.164 16-16 16h-351.999c-8.837 0-16-7.164-16-16v-208.001h383.999v208.001z"></path>
    <path fill="currentColor" d="M128.019 224h-32c-8.837 0-16 7.164-16 16s7.163 16 16 16h32c8.837 0 16-7.164 16-16s-7.164-16-16-16z"></path>
    <path fill="currentColor" d="M240.018 224h-31.999c-8.837 0-16 7.164-16 16s7.163 16 16 16h31.999c8.837 0 16-7.164 16-16s-7.164-16-16-16z"></path>
    <path fill="currentColor" d="M352.018 224h-31.998c-8.837 0-16 7.164-16 16s7.164 16 16 16h31.998c8.837 0 16-7.164 16-16s-7.164-16-16-16z"></path>
    <path fill="currentColor" d="M128.019 288.006h-32c-8.837 0-16 7.164-16 16s7.163 16 16 16h32c8.837 0 16-7.164 16-16s-7.164-16-16-16z"></path>
    <path fill="currentColor" d="M240.018 288.006h-31.999c-8.837 0-16 7.164-16 16s7.163 16 16 16h31.999c8.837 0 16-7.164 16-16s-7.164-16-16-16z"></path>
    <path fill="currentColor" d="M352.018 288.006h-31.998c-8.837 0-16 7.164-16 16s7.164 16 16 16h31.998c8.837 0 16-7.164 16-16s-7.164-16-16-16z"></path>
    <path fill="currentColor" d="M128.019 351.992h-32c-8.837 0-16 7.164-16 16s7.163 15.998 16 15.998h32c8.837 0 16-7.164 16-16s-7.164-15.998-16-15.998z"></path>
    <path fill="currentColor" d="M240.018 351.992h-31.999c-8.837 0-16 7.164-16 16s7.163 16 16 16h31.999c8.837 0 16-7.164 16-16s-7.164-16-16-16z"></path>
    <path fill="currentColor" d="M352.018 351.992h-31.998c-8.837 0-16 7.164-16 16s7.164 16 16 16h31.998c8.837 0 16-7.164 16-16s-7.164-16-16-16z"></path>
  </symbol>
  <symbol version="1.1" xmlns="http://www.w3.org/2000/svg" viewBox="0 0 467 448" id="stats">
    <path fill="currentColor" d="M132.533 313.6c8.911 0 17.458-3.539 23.759-9.841s9.841-14.847 9.841-23.759c0.084-1.118 0.084-2.242 0-3.36l62.496-62.496h10.304l36.064 36.064v1.792c0 8.911 3.539 17.457 9.841 23.759s14.847 9.841 23.759 9.841c8.911 0 17.457-3.539 23.759-9.841s9.841-14.847 9.841-23.759v-1.792l81.536-82.208c6.645 0 13.141-1.971 18.667-5.663s9.832-8.939 12.376-15.079c2.542-6.139 3.209-12.895 1.911-19.413-1.295-6.518-4.497-12.505-9.195-17.204s-10.687-7.899-17.203-9.195c-6.518-1.297-13.274-0.631-19.413 1.912s-11.389 6.85-15.079 12.375c-3.692 5.526-5.663 12.022-5.663 18.667-0.084 1.119-0.084 2.241 0 3.36l-80.864 80.864h-3.584l-38.752-39.424c0-8.911-3.539-17.458-9.841-23.759s-14.847-9.841-23.759-9.841c-8.911 0-17.457 3.54-23.759 9.841s-9.841 14.847-9.841 23.759l-67.2 67.2c-8.911 0-17.458 3.539-23.759 9.841s-9.841 14.847-9.841 23.759c0 8.911 3.54 17.457 9.841 23.759s14.847 9.841 23.759 9.841zM434.933 403.2h-380.8v-380.8c0-5.941-2.36-11.638-6.561-15.839s-9.898-6.561-15.839-6.561c-5.941 0-11.638 2.36-15.839 6.561s-6.561 9.898-6.561 15.839v403.2c0 5.942 2.36 11.639 6.561 15.839 4.201 4.202 9.898 6.561 15.839 6.561h403.2c5.942 0 11.639-2.359 15.839-6.561 4.202-4.2 6.561-9.897 6.561-15.839s-2.359-11.639-6.561-15.839c-4.2-4.202-9.897-6.561-15.839-6.561z"></path>
  </symbol>
  <symbol version="1.1" xmlns="http://www.w3.org/2000/svg" viewBox="0 0 448 448" id="info">
    <path fill="currentColor" d="M224 0c-44.303 0-87.611 13.137-124.448 37.751s-65.547 59.598-82.501 100.528c-16.954 40.931-21.39 85.97-12.747 129.421s29.977 83.364 61.304 114.693c31.327 31.326 71.24 52.66 114.691 61.303s88.49 4.206 129.422-12.748c40.93-16.954 75.914-45.662 100.528-82.499 24.612-36.837 37.75-80.146 37.75-124.449 0-29.416-5.793-58.544-17.052-85.721-11.256-27.177-27.756-51.87-48.555-72.671-20.801-20.8-45.494-37.3-72.671-48.557s-56.306-17.051-85.722-17.051zM224 403.2c-35.442 0-70.089-10.511-99.558-30.201s-52.438-47.678-66.001-80.422c-13.563-32.746-17.112-68.776-10.197-103.538s23.982-66.692 49.043-91.753c25.062-25.062 56.992-42.129 91.753-49.043s70.793-3.366 103.538 10.198c32.743 13.563 60.732 36.532 80.422 66.001s30.201 64.116 30.201 99.558c0 47.527-18.88 93.106-52.486 126.714-33.606 33.606-79.187 52.486-126.714 52.486z"></path>
    <path fill="currentColor" d="M224.088 179.2c-5.941 0-11.638 2.36-15.839 6.561s-6.561 9.898-6.561 15.839v112c0 5.942 2.36 11.64 6.561 15.84s9.898 6.56 15.839 6.56c5.941 0 11.638-2.36 15.839-6.56s6.561-9.898 6.561-15.84v-112c0-5.941-2.36-11.638-6.561-15.839s-9.898-6.561-15.839-6.561z"></path>
    <path fill="currentColor" d="M208.184 118.496c-4.093 4.293-6.413 9.973-6.496 15.904-0.017 2.948 0.548 5.87 1.663 8.6s2.757 5.212 4.833 7.305c2.177 1.979 4.677 3.57 7.392 4.704 2.681 1.185 5.58 1.797 8.512 1.797s5.831-0.612 8.512-1.797c2.715-1.134 5.215-2.725 7.392-4.704 1.972-2.183 3.562-4.681 4.704-7.392 1.254-2.658 1.868-5.574 1.792-8.512 0.026-4.449-1.274-8.805-3.734-12.513s-5.967-6.599-10.077-8.305c-4.109-1.706-8.633-2.15-12.995-1.275s-8.365 3.030-11.498 6.188z"></path>
  </symbol>
  <symbol version="1.1" xmlns="http://www.w3.org/2000/svg" viewBox="0 0 582 448" id="card">
    <path  fill="currentColor" d="M548.137 86.96c-0.004-33.473-27.135-60.606-60.608-60.606h-400.57c-33.471 0.003-60.604 27.136-60.606 60.606v274.082c0.003 33.47 27.136 60.603 60.606 60.606h400.57c33.472 0 60.603-27.133 60.608-60.606v-274.082zM574.488 361.041c-0.002 48.026-38.931 86.959-86.959 86.959h-400.57c-48.025-0.002-86.957-38.934-86.96-86.959v-274.082c0.003-48.025 38.934-86.957 86.96-86.96h400.57c48.028 0 86.957 38.933 86.959 86.96v274.082z"></path>
    <path  fill="currentColor" d="M181.794 257.282c13.64 0.007 24.706 11.066 24.706 24.707v26.354c-0.006 13.635-11.070 24.7-24.706 24.705h-63.257c-13.641 0-24.7-11.066-24.706-24.705v-26.354c0-13.644 11.061-24.707 24.706-24.707h63.257zM561.261 114.967v49.412h-548.136v-49.412h548.136z"></path>
  </symbol>
  <symbol version="1.1" xmlns="http://www.w3.org/2000/svg" viewBox="0 0 640 448" id="eye">
    <path fill="currentColor" d="M618.275 215.9c-0.877-1.975-22.051-48.95-69.126-96.025-62.723-62.725-141.949-95.875-229.149-95.875s-166.425 33.15-229.15 95.875c-47.075 47.075-68.35 94.125-69.125 96.025-1.137 2.558-1.725 5.326-1.725 8.125s0.588 5.567 1.725 8.125c0.875 1.975 22.050 48.925 69.125 96 62.725 62.701 141.95 95.85 229.15 95.85s166.426-33.149 229.149-95.85c47.075-47.075 68.25-94.025 69.126-96 1.136-2.558 1.725-5.326 1.725-8.125s-0.589-5.567-1.725-8.125zM320 384c-76.95 0-144.175-27.974-199.825-83.125-22.833-22.708-42.259-48.601-57.675-76.875 15.41-28.277 34.836-54.171 57.675-76.875 55.65-55.15 122.875-83.125 199.825-83.125s144.176 27.975 199.824 83.125c22.877 22.7 42.346 48.594 57.802 76.875-18.025 33.65-96.551 160-257.626 160zM320 104c-23.734 0-46.935 7.038-66.668 20.224s-35.115 31.927-44.197 53.855c-9.082 21.927-11.459 46.055-6.828 69.333s16.059 44.66 32.841 61.442c16.783 16.783 38.164 28.213 61.442 32.84 23.278 4.63 47.405 2.256 69.335-6.829 21.926-9.082 40.666-24.462 53.853-44.195s20.224-42.935 20.224-66.668c-0.032-31.816-12.688-62.319-35.184-84.816s-53.002-35.151-84.816-35.184zM320 304c-15.822 0-31.29-4.692-44.446-13.482s-23.41-21.285-29.465-35.903c-6.055-14.618-7.639-30.703-4.552-46.222s10.706-29.773 21.894-40.961c11.189-11.188 25.443-18.807 40.962-21.894s31.604-1.503 46.222 4.552c14.618 6.055 27.114 16.309 35.904 29.465s13.482 28.623 13.482 44.446c0 21.217-8.429 41.566-23.43 56.569-15.005 15.003-35.353 23.431-56.57 23.431z"></path>
  </symbol>
</svg>